<svg width="78" height="78" viewBox="0 0 78 78" fill="none" xmlns="http://www.w3.org/2000/svg">
<g filter="url(#filter0_di_806_2008)">
<path d="M7.71616 47.8747C6.36148 44.0769 5.78911 40.0122 5.99904 35.6806C6.23724 31.3624 7.37164 27.0489 9.40223 22.7401C11.4468 18.4016 14.0721 14.6273 17.2782 11.4172C20.4842 8.20711 24.0669 5.73743 28.0263 4.00816C31.9858 2.2789 36.1954 1.41199 40.6551 1.40743C45.1288 1.37315 49.6277 2.42203 54.1517 4.55406C61.9556 8.23181 67.3112 13.9152 70.2185 21.6042C73.3253 29.823 72.666 38.6275 68.2407 48.0176C63.9554 57.1106 57.4508 63.2875 48.7267 66.5481C43.357 68.557 37.8407 69.0804 32.1778 68.1185C29.3958 67.6427 26.3507 66.6252 23.0425 65.0662C19.7626 63.5205 16.7198 61.2149 13.9142 58.1496C11.1368 55.0975 9.07083 51.6726 7.71616 47.8747ZM21.487 27.6727C20.1846 30.4363 19.4255 33.1835 19.2098 35.9144C18.994 38.6453 19.2715 41.2092 20.0424 43.6062C21.6981 48.6717 25.1273 52.4304 30.3299 54.8822C35.278 57.2141 40.0419 57.4074 44.6215 55.462C49.3137 53.4243 53.0742 49.4042 55.903 43.4017C58.5638 37.7557 59.3273 32.3595 58.1935 27.2131C56.9595 21.6927 53.614 17.6466 48.1569 15.0748C42.8695 12.583 37.7043 12.6546 32.6615 15.2896C27.9427 17.7504 24.2178 21.8781 21.487 27.6727Z" fill="white"/>
<path d="M5.4998 35.6531H5.49978L5.49962 35.6564C5.28677 40.0483 5.86696 44.1787 7.24522 48.0427C8.62264 51.9044 10.7236 55.3863 13.5444 58.4861L13.5454 58.4871C16.3886 61.5935 19.4826 63.9412 22.8294 65.5185C26.1671 67.0914 29.256 68.126 32.0935 68.6113L32.0941 68.6114C37.8438 69.5881 43.4494 69.0562 48.9019 67.0164C57.7583 63.7063 64.357 57.4314 68.693 48.2308C73.1647 38.7421 73.8495 29.7958 70.6862 21.4274L70.2185 21.6042L70.6861 21.4273C67.7305 13.6105 62.2797 7.83181 54.3648 4.10177C49.7816 1.94183 45.2095 0.872788 40.6529 0.907432C36.1274 0.912274 31.8502 1.79252 27.8262 3.54996C23.8066 5.3055 20.1724 7.81177 16.9244 11.0639C13.6754 14.317 11.0177 18.1394 8.94994 22.527C6.89468 26.8881 5.74189 31.2643 5.4998 35.6531ZM32.8927 15.7329L32.8931 15.7328C37.7929 13.1725 42.7933 13.0999 47.9438 15.5271C53.2717 18.038 56.5075 21.9633 57.7054 27.3214C58.811 32.3407 58.0733 37.6237 55.4507 43.1885C52.6583 49.1139 48.9743 53.026 44.4241 55.0026C39.9901 56.8855 35.3759 56.7075 30.543 54.4299C25.4543 52.0317 22.1274 48.3749 20.518 43.4518C19.7691 41.1226 19.4971 38.6249 19.7082 35.9538C19.9187 33.2896 20.6597 30.601 21.9393 27.8858C24.6333 22.1694 28.2892 18.1336 32.8927 15.7329Z" stroke="url(#paint0_linear_806_2008)"/>
</g>
<g filter="url(#filter1_d_806_2008)">
<path d="M20.3906 28.3984C22.1406 27.4922 23.9297 27.0391 25.7578 27.0391C27.5859 27.0391 29.1562 27.3281 30.4688 27.9062C31.7969 28.4688 32.9609 29.2812 33.9609 30.3438C36.1328 32.7031 37.2188 35.6875 37.2188 39.2969C37.2188 43.25 36.0391 46.4375 33.6797 48.8594C31.4141 51.1875 28.5938 52.3516 25.2188 52.3516C22.25 52.3516 19.8047 51.5781 17.8828 50.0312C15.7266 48.2812 14.6484 45.8672 14.6484 42.7891V17.125H20.3906V28.3984ZM20.3906 42.7188C20.3906 45.4688 22.1016 46.8438 25.5234 46.8438C27.1953 46.8438 28.6016 46.1094 29.7422 44.6406C30.8984 43.1406 31.4766 41.2734 31.4766 39.0391C31.4766 36.7891 30.8672 35.0938 29.6484 33.9531C28.5547 32.9375 27.0859 32.4297 25.2422 32.4297C24.1328 32.4297 22.9062 32.8047 21.5625 33.5547C21.1406 33.7891 20.75 34.0469 20.3906 34.3281V42.7188ZM48.4688 51.5078V58.3984C48.4688 59.7422 48.5 60.6172 48.5625 61.0234H42.7266V27.5078H48.4688V29.0312C50.3594 27.7031 52.1719 27.0391 53.9062 27.0391C55.6406 27.0391 57.1797 27.2812 58.5234 27.7656C59.8672 28.25 61.0469 29 62.0625 30.0156C64.2969 32.2188 65.4141 35.3594 65.4141 39.4375C65.4141 42.1406 64.7812 44.5547 63.5156 46.6797C62.4375 48.4766 60.9453 49.9141 59.0391 50.9922C57.3516 51.9453 55.5234 52.4219 53.5547 52.4219C51.5859 52.4219 49.8906 52.1172 48.4688 51.5078ZM48.4688 45.6016C49.6562 46.6016 51.1953 47.1016 53.0859 47.1016C56.1797 47.1016 58.1797 45.6094 59.0859 42.625C59.3984 41.6094 59.5547 40.5234 59.5547 39.3672C59.5547 38.1953 59.4453 37.2656 59.2266 36.5781C59.0078 35.875 58.7188 35.2734 58.3594 34.7734C58.0156 34.2578 57.625 33.8359 57.1875 33.5078C56.75 33.1641 56.3047 32.8906 55.8516 32.6875C55.0547 32.3281 54.2344 32.1484 53.3906 32.1484C52.5469 32.1484 51.6719 32.3438 50.7656 32.7344C49.8594 33.125 49.0938 33.6484 48.4688 34.3047V45.6016Z" fill="white"/>
<path d="M20.3906 28.3984H19.3906V30.0424L20.8505 29.2864L20.3906 28.3984ZM30.4688 27.9062L30.0656 28.8214L30.0722 28.8243L30.0788 28.8271L30.4688 27.9062ZM33.9609 30.3438L34.6967 29.6664L34.6891 29.6584L33.9609 30.3438ZM33.6797 48.8594L32.9634 48.1616L32.963 48.162L33.6797 48.8594ZM17.8828 50.0312L17.2526 50.8077L17.2558 50.8103L17.8828 50.0312ZM14.6484 17.125V16.125H13.6484V17.125H14.6484ZM20.3906 17.125H21.3906V16.125H20.3906V17.125ZM29.7422 44.6406L30.532 45.254L30.5342 45.2511L29.7422 44.6406ZM29.6484 33.9531L30.3318 33.223L30.3289 33.2203L29.6484 33.9531ZM21.5625 33.5547L22.0481 34.4288L22.0499 34.4279L21.5625 33.5547ZM20.3906 34.3281L19.7743 33.5406L19.3906 33.8409V34.3281H20.3906ZM20.8505 29.2864C22.4697 28.4479 24.102 28.0391 25.7578 28.0391V26.0391C23.7573 26.0391 21.8115 26.5365 19.9308 27.5104L20.8505 29.2864ZM25.7578 28.0391C27.4838 28.0391 28.9099 28.3123 30.0656 28.8214L30.8719 26.9911C29.4026 26.3439 27.688 26.0391 25.7578 26.0391V28.0391ZM30.0788 28.8271C31.2775 29.3348 32.3268 30.0665 33.2327 31.0291L34.6891 29.6584C33.5951 28.496 32.3162 27.6027 30.8587 26.9854L30.0788 28.8271ZM33.2252 31.021C35.2055 33.1722 36.2188 35.9045 36.2188 39.2969H38.2188C38.2188 35.4705 37.0602 32.234 34.6967 29.6665L33.2252 31.021ZM36.2188 39.2969C36.2188 43.0367 35.1103 45.9578 32.9634 48.1616L34.396 49.5572C36.9679 46.9172 38.2188 43.4633 38.2188 39.2969H36.2188ZM32.963 48.162C30.8937 50.2883 28.3356 51.3516 25.2188 51.3516V53.3516C28.8519 53.3516 31.9344 52.0867 34.3963 49.5568L32.963 48.162ZM25.2188 51.3516C22.43 51.3516 20.2199 50.6286 18.5098 49.2522L17.2558 50.8103C19.3895 52.5276 22.07 53.3516 25.2188 53.3516V51.3516ZM18.513 49.2548C16.6181 47.7169 15.6484 45.603 15.6484 42.7891H13.6484C13.6484 46.1314 14.8351 48.8456 17.2526 50.8077L18.513 49.2548ZM15.6484 42.7891V17.125H13.6484V42.7891H15.6484ZM14.6484 18.125H20.3906V16.125H14.6484V18.125ZM19.3906 17.125V28.3984H21.3906V17.125H19.3906ZM19.3906 42.7188C19.3906 44.3129 19.8973 45.6677 21.0474 46.592C22.1557 47.4827 23.7049 47.8438 25.5234 47.8438V45.8438C23.9201 45.8438 22.9029 45.5173 22.3003 45.033C21.7394 44.5823 21.3906 43.8746 21.3906 42.7188H19.3906ZM25.5234 47.8438C27.5418 47.8438 29.2263 46.9353 30.532 45.254L28.9524 44.0273C27.9769 45.2834 26.8489 45.8438 25.5234 45.8438V47.8438ZM30.5342 45.2511C31.8485 43.5461 32.4766 41.4531 32.4766 39.0391H30.4766C30.4766 41.0937 29.9484 42.7351 28.9502 44.0301L30.5342 45.2511ZM32.4766 39.0391C32.4766 36.6125 31.8156 34.6117 30.3318 33.223L28.9651 34.6832C29.9188 35.5758 30.4766 36.9657 30.4766 39.0391H32.4766ZM30.3289 33.2203C29.0091 31.9948 27.2761 31.4297 25.2422 31.4297V33.4297C26.8958 33.4297 28.1003 33.8802 28.968 34.6859L30.3289 33.2203ZM25.2422 31.4297C23.9088 31.4297 22.513 31.8789 21.0751 32.6815L22.0499 34.4279C23.2995 33.7304 24.3568 33.4297 25.2422 33.4297V31.4297ZM21.0769 32.6805C20.6118 32.9389 20.1772 33.2253 19.7743 33.5406L21.0069 35.1156C21.3228 34.8684 21.6694 34.6392 22.0481 34.4288L21.0769 32.6805ZM19.3906 34.3281V42.7188H21.3906V34.3281H19.3906ZM48.4688 51.5078L48.8627 50.5887L47.4688 49.9913V51.5078H48.4688ZM48.5625 61.0234V62.0234H49.7281L49.5509 60.8714L48.5625 61.0234ZM42.7266 61.0234H41.7266V62.0234H42.7266V61.0234ZM42.7266 27.5078V26.5078H41.7266V27.5078H42.7266ZM48.4688 27.5078H49.4688V26.5078H48.4688V27.5078ZM48.4688 29.0312H47.4688V30.9558L49.0436 29.8495L48.4688 29.0312ZM62.0625 30.0156L61.3554 30.7227L61.3604 30.7277L62.0625 30.0156ZM63.5156 46.6797L64.3731 47.1942L64.3748 47.1914L63.5156 46.6797ZM59.0391 50.9922L59.5309 51.8629L59.5314 51.8626L59.0391 50.9922ZM48.4688 45.6016H47.4688V46.0668L47.8246 46.3665L48.4688 45.6016ZM59.0859 42.625L58.1302 42.3309L58.1291 42.3344L59.0859 42.625ZM59.2266 36.5781L58.2717 36.8752L58.2736 36.8813L59.2266 36.5781ZM58.3594 34.7734L57.5273 35.3281L57.5371 35.3428L57.5474 35.3571L58.3594 34.7734ZM57.1875 33.5078L56.5697 34.2941L56.5785 34.3011L56.5875 34.3078L57.1875 33.5078ZM55.8516 32.6875L55.4405 33.5991L55.4425 33.6L55.8516 32.6875ZM48.4688 34.3047L47.7446 33.615L47.4688 33.9047V34.3047H48.4688ZM47.4688 51.5078V58.3984H49.4688V51.5078H47.4688ZM47.4688 58.3984C47.4688 59.7244 47.4978 60.6795 47.5741 61.1755L49.5509 60.8714C49.5022 60.5549 49.4688 59.76 49.4688 58.3984H47.4688ZM48.5625 60.0234H42.7266V62.0234H48.5625V60.0234ZM43.7266 61.0234V27.5078H41.7266V61.0234H43.7266ZM42.7266 28.5078H48.4688V26.5078H42.7266V28.5078ZM47.4688 27.5078V29.0312H49.4688V27.5078H47.4688ZM49.0436 29.8495C50.821 28.6009 52.436 28.0391 53.9062 28.0391V26.0391C51.9077 26.0391 49.8978 26.8053 47.8939 28.213L49.0436 29.8495ZM53.9062 28.0391C55.549 28.0391 56.9698 28.2686 58.1843 28.7064L58.8625 26.8249C57.3896 26.2939 55.7323 26.0391 53.9062 26.0391V28.0391ZM58.1843 28.7064C59.3889 29.1406 60.4432 29.8105 61.3554 30.7227L62.7696 29.3085C61.6506 28.1895 60.3454 27.3594 58.8625 26.8249L58.1843 28.7064ZM61.3604 30.7277C63.3518 32.6913 64.4141 35.5432 64.4141 39.4375H66.4141C66.4141 35.1755 65.2419 31.7462 62.7646 29.3036L61.3604 30.7277ZM64.4141 39.4375C64.4141 41.9778 63.8215 44.2119 62.6565 46.168L64.3748 47.1914C65.741 44.8974 66.4141 42.3035 66.4141 39.4375H64.4141ZM62.6581 46.1652C61.673 47.8071 60.3096 49.1247 58.5468 50.1218L59.5314 51.8626C61.581 50.7034 63.202 49.1461 64.3731 47.1942L62.6581 46.1652ZM58.5473 50.1215C57.0123 50.9885 55.354 51.4219 53.5547 51.4219V53.4219C55.6929 53.4219 57.6908 52.9022 59.5309 51.8629L58.5473 50.1215ZM53.5547 51.4219C51.6858 51.4219 50.1311 51.1323 48.8627 50.5887L48.0748 52.427C49.6501 53.1021 51.486 53.4219 53.5547 53.4219V51.4219ZM47.8246 46.3665C49.2294 47.5494 51.0129 48.1016 53.0859 48.1016V46.1016C51.3777 46.1016 50.0831 45.6537 49.1129 44.8367L47.8246 46.3665ZM53.0859 48.1016C54.7958 48.1016 56.2937 47.6871 57.5042 46.7839C58.7141 45.8813 59.5433 44.5603 60.0428 42.9156L58.1291 42.3344C57.7223 43.6741 57.0984 44.5914 56.3083 45.1809C55.5188 45.7699 54.4699 46.1016 53.0859 46.1016V48.1016ZM60.0417 42.9191C60.386 41.8002 60.5547 40.6144 60.5547 39.3672H58.5547C58.5547 40.4325 58.4109 41.4186 58.1302 42.3309L60.0417 42.9191ZM60.5547 39.3672C60.5547 38.1481 60.4427 37.1023 60.1795 36.2749L58.2736 36.8813C58.4479 37.429 58.5547 38.2425 58.5547 39.3672H60.5547ZM60.1814 36.2811C59.9368 35.4948 59.6044 34.7922 59.1714 34.1898L57.5474 35.3571C57.8331 35.7547 58.0788 36.2552 58.2717 36.8752L60.1814 36.2811ZM59.1914 34.2187C58.7931 33.6212 58.3269 33.1124 57.7875 32.7078L56.5875 34.3078C56.9231 34.5595 57.2382 34.8944 57.5273 35.3281L59.1914 34.2187ZM57.8053 32.7215C57.3112 32.3333 56.7965 32.0152 56.2606 31.775L55.4425 33.6C55.8128 33.766 56.1888 33.9948 56.5697 34.2941L57.8053 32.7215ZM56.2627 31.7759C55.3413 31.3604 54.3813 31.1484 53.3906 31.1484V33.1484C54.0875 33.1484 54.768 33.2958 55.4405 33.5991L56.2627 31.7759ZM53.3906 31.1484C52.3896 31.1484 51.3801 31.3806 50.3698 31.8161L51.1615 33.6527C51.9636 33.3069 52.7041 33.1484 53.3906 33.1484V31.1484ZM50.3698 31.8161C49.3509 32.2552 48.4705 32.8528 47.7446 33.615L49.1929 34.9943C49.717 34.444 50.3678 33.9948 51.1615 33.6527L50.3698 31.8161ZM47.4688 34.3047V45.6016H49.4688V34.3047H47.4688Z" fill="url(#paint1_linear_806_2008)"/>
</g>
<defs>
<filter id="filter0_di_806_2008" x="0.956787" y="0.406616" width="76.1841" height="77.1791" filterUnits="userSpaceOnUse" color-interpolation-filters="sRGB">
<feFlood flood-opacity="0" result="BackgroundImageFix"/>
<feColorMatrix in="SourceAlpha" type="matrix" values="0 0 0 0 0 0 0 0 0 0 0 0 0 0 0 0 0 0 127 0" result="hardAlpha"/>
<feOffset dy="4"/>
<feGaussianBlur stdDeviation="2"/>
<feComposite in2="hardAlpha" operator="out"/>
<feColorMatrix type="matrix" values="0 0 0 0 0 0 0 0 0 0 0 0 0 0 0 0 0 0 0.25 0"/>
<feBlend mode="normal" in2="BackgroundImageFix" result="effect1_dropShadow_806_2008"/>
<feBlend mode="normal" in="SourceGraphic" in2="effect1_dropShadow_806_2008" result="shape"/>
<feColorMatrix in="SourceAlpha" type="matrix" values="0 0 0 0 0 0 0 0 0 0 0 0 0 0 0 0 0 0 127 0" result="hardAlpha"/>
<feOffset dx="3" dy="3"/>
<feGaussianBlur stdDeviation="2.5"/>
<feComposite in2="hardAlpha" operator="arithmetic" k2="-1" k3="1"/>
<feColorMatrix type="matrix" values="0 0 0 0 0 0 0 0 0 0.27451 0 0 0 0 0.435294 0 0 0 1 0"/>
<feBlend mode="normal" in2="shape" result="effect2_innerShadow_806_2008"/>
</filter>
<filter id="filter1_d_806_2008" x="12.6484" y="15.125" width="58.7656" height="51.8984" filterUnits="userSpaceOnUse" color-interpolation-filters="sRGB">
<feFlood flood-opacity="0" result="BackgroundImageFix"/>
<feColorMatrix in="SourceAlpha" type="matrix" values="0 0 0 0 0 0 0 0 0 0 0 0 0 0 0 0 0 0 127 0" result="hardAlpha"/>
<feOffset dx="2" dy="2"/>
<feGaussianBlur stdDeviation="2"/>
<feComposite in2="hardAlpha" operator="out"/>
<feColorMatrix type="matrix" values="0 0 0 0 0 0 0 0 0 0.27451 0 0 0 0 0.435294 0 0 0 1 0"/>
<feBlend mode="normal" in2="BackgroundImageFix" result="effect1_dropShadow_806_2008"/>
<feBlend mode="normal" in="SourceGraphic" in2="effect1_dropShadow_806_2008" result="shape"/>
</filter>
<linearGradient id="paint0_linear_806_2008" x1="20.2633" y1="-9.65517" x2="87.0486" y2="41.8468" gradientUnits="userSpaceOnUse">
<stop stop-color="#008888"/>
<stop offset="1" stop-color="#00466F"/>
</linearGradient>
<linearGradient id="paint1_linear_806_2008" x1="11" y1="16" x2="74.265" y2="31.6714" gradientUnits="userSpaceOnUse">
<stop stop-color="#008888"/>
<stop offset="1" stop-color="#00466F"/>
</linearGradient>
</defs>
</svg>
